<?xml version="1.0" encoding="utf-8"?>
<!-- Generator: Adobe Illustrator 16.0.0, SVG Export Plug-In . SVG Version: 6.00 Build 0)  -->
<!DOCTYPE svg PUBLIC "-//W3C//DTD SVG 1.1//EN" "http://www.w3.org/Graphics/SVG/1.1/DTD/svg11.dtd">
<svg version="1.1" xmlns="http://www.w3.org/2000/svg" xmlns:xlink="http://www.w3.org/1999/xlink" x="0px" y="0px"
	 width="23.265px" height="23.852px" viewBox="0 0 23.265 23.852" enable-background="new 0 0 23.265 23.852" xml:space="preserve">
<g id="Layer_1">
	<path fill="#FFFFFF" d="M22.534,15.535c0-2.607-7.271-3.359-8.258-3.359c-0.846,0-1.148-1.433-1.219-1.843
		c1.541-0.761,2.641-2.705,2.641-4.995C15.698,2.39,13.878,0,11.632,0C9.387,0,7.569,2.39,7.569,5.338
		c0,2.29,1.098,4.234,2.638,4.995c-0.069,0.41-0.372,1.843-1.218,1.843c-0.987,0-8.257,0.752-8.257,3.359
		C0.732,16.672,0.387,18,0,19.139c3.011,2.916,7.111,4.713,11.632,4.713c4.522,0,8.623-1.797,11.632-4.713
		C22.88,18,22.534,16.672,22.534,15.535z M11.633,22.24L11.633,22.24L11.633,22.24L11.633,22.24l-1.592-1.834l0.731-6.587h0.007
		l-0.321-0.854l1.18-0.739l1.18,0.739l-0.331,0.854h0.006l0.731,6.587L11.633,22.24z"/>
</g>
<g id="Layer_2" display="none">
	<path display="inline" fill="#00A79D" d="M11.632,23.852c4.522,0,8.623-1.797,11.632-4.713c-0.385-1.139-0.73-2.467-0.73-3.604
		c0-2.607-6.277-2.091-7.264-2.091c-0.846,0-2.18-2.152-2.25-2.562c1.541-0.761,2.812-2.241,2.812-4.531
		c0-2.948-1.055-6.169-3.3-6.169c-2.245,0-4.964,2.208-4.964,5.156c0,2.29,1.193,5.221,2.733,5.981
		c-0.069,0.41-0.467,0.856-1.313,0.856c-0.987,0-8.257,0.752-8.257,3.359C0.732,16.672,0.387,18,0,19.139
		C3.011,22.055,7.111,23.852,11.632,23.852z"/>
</g>
</svg>
