<?xml version="1.0" encoding="utf-8"?>
<!-- Generator: Adobe Illustrator 16.0.0, SVG Export Plug-In . SVG Version: 6.00 Build 0)  -->
<!DOCTYPE svg PUBLIC "-//W3C//DTD SVG 1.1//EN" "http://www.w3.org/Graphics/SVG/1.1/DTD/svg11.dtd">
<svg version="1.1" id="Layer_1" xmlns="http://www.w3.org/2000/svg" xmlns:xlink="http://www.w3.org/1999/xlink" x="0px" y="0px"
	 width="16px" height="16px" viewBox="0 0 16 16" enable-background="new 0 0 16 16" xml:space="preserve">
<path fill="#FFFFFF" d="M7.999,15.998c3.033,0,5.783-1.205,7.805-3.162c-0.262-0.762-0.492-1.653-0.492-2.415
	c0-1.749-4.877-2.256-5.538-2.256c-0.568,0-0.771-0.959-0.818-1.233c1.033-0.511,1.771-1.815,1.771-3.35
	C10.726,1.601,9.506,0,7.999,0C6.492,0,5.272,1.601,5.272,3.582c0,1.535,0.737,2.839,1.771,3.35
	C6.996,7.206,6.792,8.165,6.225,8.165c-0.662,0-5.539,0.507-5.539,2.256c0,0.762-0.232,1.653-0.491,2.415
	C2.215,14.793,4.965,15.998,7.999,15.998z"/>
</svg>
