<?xml version="1.0" encoding="utf-8"?>
<!-- Generator: Adobe Illustrator 16.0.0, SVG Export Plug-In . SVG Version: 6.00 Build 0)  -->
<!DOCTYPE svg PUBLIC "-//W3C//DTD SVG 1.1//EN" "http://www.w3.org/Graphics/SVG/1.1/DTD/svg11.dtd">
<svg version="1.1" id="Layer_1" xmlns="http://www.w3.org/2000/svg" xmlns:xlink="http://www.w3.org/1999/xlink" x="0px" y="0px"
	 width="9.552px" height="13.552px" viewBox="0 0 9.552 13.552" enable-background="new 0 0 9.552 13.552" xml:space="preserve">
<path fill="#FFFFFF" d="M9.552,11.552c0,1.104-0.896,2-2,2H2c-1.104,0-2-0.896-2-2V8.153c0-1.104,0.896-2,2-2h5.552
	c1.104,0,2,0.896,2,2V11.552z"/>
<path fill="#FFFFFF" d="M8.371,3.59c0-0.006,0.003-0.011,0.003-0.018H8.369C8.354,1.601,6.749,0,4.774,0
	C2.791,0,1.178,1.614,1.178,3.598v2.813h1.468V3.598c0-1.174,0.955-2.13,2.129-2.13s2.129,0.956,2.129,2.13h0.009
	c0.014,0.394,0.332,0.708,0.729,0.708s0.714-0.314,0.729-0.708h0.002C8.371,3.595,8.371,3.593,8.371,3.59z"/>
</svg>
