<?xml version="1.0" encoding="utf-8"?>
<!-- Generator: Adobe Illustrator 16.0.0, SVG Export Plug-In . SVG Version: 6.00 Build 0)  -->
<!DOCTYPE svg PUBLIC "-//W3C//DTD SVG 1.1//EN" "http://www.w3.org/Graphics/SVG/1.1/DTD/svg11.dtd">
<svg version="1.1" id="Layer_1" xmlns="http://www.w3.org/2000/svg" xmlns:xlink="http://www.w3.org/1999/xlink" x="0px" y="0px"
	 width="45.334px" height="45.334px" viewBox="0 0 45.334 45.334" enable-background="new 0 0 45.334 45.334" xml:space="preserve">
<circle fill="#4AB8A1" cx="22.667" cy="22.667" r="22.667"/>
<path fill="#FFFFFF" d="M35.354,32.854c-3.156,0-5.978,0-8.562,0c0,0-2.104-0.904-2.104-2.281c0-0.004-0.002-0.006-0.002-0.01
	c2.758-0.953,4.922-3.799,5.637-7.418c0.619,1.042,0.453-0.385,0.338-0.685c-0.116-0.306,0.354-2.186,0.164-2.377
	c-0.071-0.073-0.165,0.012-0.254,0.145c-0.127-5.59-3.611-10.224-7.903-10.224c-4.291,0-7.776,4.634-7.904,10.223
	c-0.088-0.132-0.182-0.217-0.253-0.144c-0.188,0.191,0.28,2.071,0.164,2.377c-0.116,0.3-0.281,1.729,0.338,0.686
	c0.715,3.619,2.878,6.466,5.636,7.417c0,0.004-0.001,0.008-0.001,0.012c0,1.376-2.104,2.279-2.104,2.279c-2.585,0-5.406,0-8.562,0
	c-3.718,0-4.777,2.35-5.075,3.885c4.152,5.234,10.563,8.596,17.763,8.596c7.199,0,13.61-3.359,17.763-8.596
	C40.132,35.203,39.071,32.854,35.354,32.854z"/>
<path opacity="0.15" enable-background="new    " d="M22.667,45.334C10.148,45.334,0,35.187,0,22.667C0,10.148,10.148,0,22.667,0
	V45.334z"/>
<path fill="#754C29" d="M23.917,17.283"/>
</svg>
